<svg width="226" height="55" viewBox="0 0 226 55" fill="none" xmlns="http://www.w3.org/2000/svg">
<path fill-rule="evenodd" clip-rule="evenodd" d="M89.806 13.4834V17.4076H76.8703C73.2373 17.4076 71.3938 19.2865 71.3938 23.1025V31.9122C71.3938 35.7282 73.2373 37.6633 76.8703 37.6633H89.806V41.5313H76.1337C70.393 41.5313 67.5508 38.5226 67.5508 32.5593V22.4575C67.5508 16.4921 70.393 13.4834 76.1337 13.4834H89.806Z" fill="white"/>
<path fill-rule="evenodd" clip-rule="evenodd" d="M99.4163 13.5381V31.9128C99.4163 35.7288 101.26 37.6639 104.841 37.6639H113.773C117.406 37.6639 119.252 35.7288 119.252 31.9128V13.5381H123.041V32.5599C123.041 38.5232 120.144 41.5319 114.458 41.5319H104.156C98.4176 41.5319 95.5732 38.5232 95.5732 32.5599V13.5381H99.4163Z" fill="white"/>
<path fill-rule="evenodd" clip-rule="evenodd" d="M134.572 0.902344V31.9173C134.572 35.7334 136.415 37.6684 139.996 37.6684H149.035C152.667 37.6684 154.511 35.7334 154.511 31.9173V23.1076C154.511 19.2916 152.667 17.4127 149.035 17.4127H136.494V13.4885H149.773C155.51 13.4885 158.356 16.4972 158.356 22.4626V32.5644C158.356 38.5278 155.51 41.5365 149.773 41.5365H139.309C133.573 41.5365 130.729 38.5278 130.729 32.5644V0.902344H134.572Z" fill="white"/>
<path fill-rule="evenodd" clip-rule="evenodd" d="M183.854 13.4902C189.755 13.4902 192.76 16.4969 192.76 22.4622V32.5641C192.76 38.5274 189.755 41.5361 183.854 41.5361H174.183C168.226 41.5361 165.273 38.5274 165.273 32.5641V22.4622C165.273 16.4969 168.226 13.4902 174.183 13.4902H183.854ZM169.264 31.919C169.264 35.733 171.176 37.668 174.947 37.668H183.088C186.859 37.668 188.771 35.733 188.771 31.919V23.1073C188.771 19.2912 186.859 17.4124 183.088 17.4124H174.947C171.176 17.4124 169.264 19.2912 169.264 23.1073V31.919Z" fill="white"/>
<mask id="mask0" mask-type="alpha" maskUnits="userSpaceOnUse" x="198" y="13" width="26" height="29">
<path fill-rule="evenodd" clip-rule="evenodd" d="M198.527 13.4873H223.995V41.5352H198.527V13.4873Z" fill="white"/>
</mask>
<g mask="url(#mask0)">
<path fill-rule="evenodd" clip-rule="evenodd" d="M222.784 13.4873V16.8726H205.793C203.423 16.8726 202.266 18.0024 202.266 20.2059V22.4073C202.266 24.4505 203.319 25.4701 205.531 25.4701H217.992C221.994 25.4701 223.995 27.4051 223.995 31.2191V35.3035C223.995 39.442 221.837 41.5352 217.518 41.5352H198.792V38.152H216.517C219.045 38.152 220.256 37.0763 220.256 34.8208V31.6498C220.256 29.6065 219.203 28.587 217.044 28.587H204.582C200.581 28.587 198.527 26.6519 198.527 22.8359V19.667C198.527 15.5847 200.633 13.4873 204.846 13.4873H222.784Z" fill="white"/>
</g>
<path fill-rule="evenodd" clip-rule="evenodd" d="M39.112 4.82558C44.1806 4.82558 48.3046 9.03277 48.3046 14.2054V40.8114C48.3046 45.984 44.1806 50.1933 39.112 50.1933H13.0366C7.96801 50.1933 3.84405 45.984 3.84405 40.8114V14.2054C3.84405 9.03277 7.96801 4.82558 13.0366 4.82558H39.112ZM39.112 0.901367H13.0366C5.83736 0.901367 0.000976562 6.85843 0.000976562 14.2054V40.8114C0.000976562 48.1584 5.83736 54.1133 13.0366 54.1133H39.112C46.3113 54.1133 52.1497 48.1584 52.1497 40.8114V14.2054C52.1497 6.85843 46.3113 0.901367 39.112 0.901367Z" fill="white"/>
</svg>
